<?xml version="1.0" encoding="UTF-8" standalone="no"?>
<svg
   xmlns:dc="http://purl.org/dc/elements/1.1/"
   xmlns:cc="http://creativecommons.org/ns#"
   xmlns:rdf="http://www.w3.org/1999/02/22-rdf-syntax-ns#"
   xmlns:svg="http://www.w3.org/2000/svg"
   xmlns="http://www.w3.org/2000/svg"
   xmlns:sodipodi="http://sodipodi.sourceforge.net/DTD/sodipodi-0.dtd"
   xmlns:inkscape="http://www.inkscape.org/namespaces/inkscape"
   version="1.1"
   id="Capa_1"
   x="0px"
   y="0px"
   viewBox="0 0 512 512"
   style="enable-background:new 0 0 512 512;"
   xml:space="preserve"
   sodipodi:docname="instagram.svg"
   inkscape:version="1.0.1 (3bc2e813f5, 2020-09-07)"><metadata
   id="metadata154"><rdf:RDF><cc:Work
       rdf:about=""><dc:format>image/svg+xml</dc:format><dc:type
         rdf:resource="http://purl.org/dc/dcmitype/StillImage" /><dc:title></dc:title></cc:Work></rdf:RDF></metadata><defs
   id="defs152" /><sodipodi:namedview
   pagecolor="#ffffff"
   bordercolor="#666666"
   borderopacity="1"
   objecttolerance="10"
   gridtolerance="10"
   guidetolerance="10"
   inkscape:pageopacity="0"
   inkscape:pageshadow="2"
   inkscape:window-width="1350"
   inkscape:window-height="726"
   id="namedview150"
   showgrid="false"
   inkscape:zoom="1.0332031"
   inkscape:cx="425.86011"
   inkscape:cy="256"
   inkscape:window-x="8"
   inkscape:window-y="34"
   inkscape:window-maximized="0"
   inkscape:current-layer="Capa_1" />
<g
   id="g105"
   style="fill:#ffffff">
	<g
   id="g103"
   style="fill:#ffffff">
		<path
   d="M352,0H160C71.648,0,0,71.648,0,160v192c0,88.352,71.648,160,160,160h192c88.352,0,160-71.648,160-160V160    C512,71.648,440.352,0,352,0z M464,352c0,61.76-50.24,112-112,112H160c-61.76,0-112-50.24-112-112V160C48,98.24,98.24,48,160,48    h192c61.76,0,112,50.24,112,112V352z"
   id="path101"
   style="fill:#ffffff" />
	</g>
</g>
<g
   id="g111"
   style="fill:#ffffff">
	<g
   id="g109"
   style="fill:#ffffff">
		<path
   d="M256,128c-70.688,0-128,57.312-128,128s57.312,128,128,128s128-57.312,128-128S326.688,128,256,128z M256,336    c-44.096,0-80-35.904-80-80c0-44.128,35.904-80,80-80s80,35.872,80,80C336,300.096,300.096,336,256,336z"
   id="path107"
   style="fill:#ffffff" />
	</g>
</g>
<g
   id="g117"
   style="fill:#ffffff">
	<g
   id="g115"
   style="fill:#ffffff">
		<circle
   cx="393.6"
   cy="118.4"
   r="17.056"
   id="circle113"
   style="fill:#ffffff" />
	</g>
</g>
<g
   id="g119"
   style="fill:#ffffff">
</g>
<g
   id="g121"
   style="fill:#ffffff">
</g>
<g
   id="g123"
   style="fill:#ffffff">
</g>
<g
   id="g125"
   style="fill:#ffffff">
</g>
<g
   id="g127"
   style="fill:#ffffff">
</g>
<g
   id="g129"
   style="fill:#ffffff">
</g>
<g
   id="g131"
   style="fill:#ffffff">
</g>
<g
   id="g133"
   style="fill:#ffffff">
</g>
<g
   id="g135"
   style="fill:#ffffff">
</g>
<g
   id="g137"
   style="fill:#ffffff">
</g>
<g
   id="g139"
   style="fill:#ffffff">
</g>
<g
   id="g141"
   style="fill:#ffffff">
</g>
<g
   id="g143"
   style="fill:#ffffff">
</g>
<g
   id="g145"
   style="fill:#ffffff">
</g>
<g
   id="g147"
   style="fill:#ffffff">
</g>
</svg>
